<svg width="800" height="428" viewBox="0 0 800 428" fill="none" xmlns="http://www.w3.org/2000/svg">
<path d="M204.071 214.442C204.071 214.233 229.134 211.288 247.82 224.706C283.856 250.585 280.914 301.529 258.233 334.475C232.94 371.221 189.044 393.458 141.551 386.253C132.822 384.93 125.121 380.859 117.065 378.024C109.129 375.233 97.3124 364.213 93.255 357.26C83.6861 340.865 85.3785 321.412 94.9933 305.454C101.274 295.028 115.167 281.76 126.809 276.768C129.721 275.52 137.159 272.933 135.776 278.528C135.325 280.355 130.072 284.611 128.547 286.284C110.801 305.749 99.3767 336.353 126.153 354.389C162.109 378.611 216.815 357.453 239.676 326.03C257.669 301.296 262.863 263.208 242.839 238.167C236.108 229.75 215.323 215.225 204.066 214.442H204.071Z" fill="#FD7602"/>
<path d="M277.584 189.149C218.223 152.573 167.688 203.307 118.698 229.143C109.714 233.88 95.4489 240.467 85.4078 242.069C56.6509 246.652 26.2017 230.962 24.3799 201.732C21.9981 163.502 57.9964 136.966 95.6495 133.8C115.748 132.111 134.468 136.237 153.61 141.387C164.282 144.257 176.831 149.34 187.356 151.336C188.058 151.47 188.735 151.604 189.454 151.514C191 151.321 198.375 145.868 200.297 144.604C200.795 144.277 201.221 143.348 201.572 143.245C201.785 142.277 201.091 142.411 200.439 142.167C195.237 140.249 189.546 138.785 184.222 136.95C160.476 128.772 137.281 118 111.892 114.941C72.2161 110.165 31.2285 127.469 10.9458 161.077C-21.0996 214.174 21.2334 273.035 85.8257 263.72C106.179 260.782 122.852 252.416 140.427 242.919C157.384 233.758 186.241 213.135 205.938 214.505C207.029 214.505 206.64 214.536 207.447 214.505C223.054 213.926 233.308 215.977 245.831 224.97C281.867 250.849 278.925 301.792 256.244 334.739C230.951 371.485 187.599 393.206 140.109 386.005C131.38 384.682 119.35 377.886 111.294 375.056C112.886 376.556 117.574 379.339 118.327 379.757C170.542 408.837 239.977 393.541 273.289 346.452C305.263 301.253 303.466 227.49 242.739 205.441C230.951 201.162 216.485 200.26 204.083 202.295C203.812 201.307 205.061 201.225 205.763 200.933C252.392 181.602 292.932 221.182 300.487 262.058C313.106 330.337 261.99 393.742 190.453 404.226C186.441 404.813 182.045 405.325 177.758 405.455C131.263 406.892 69.4749 383.682 72.8596 331.617C74.4976 306.391 96.4434 282.154 119.313 270.657C122.835 268.885 131.99 266.086 134.289 264.294C139.341 260.349 129.667 260.432 127.394 260.554C89.5028 262.609 51.6575 299.328 49.0668 334.79C44.345 399.427 120.892 430.507 179.016 427.507C242.965 424.204 303.654 379.198 320.548 320.892C334.425 273.007 323.774 217.603 277.592 189.145L277.584 189.149Z" fill="url(#paint0_linear_1358_423)"/>
<path d="M288.439 315.86C284.938 326.793 279.815 337.223 273.284 346.456C239.972 393.545 170.537 408.841 118.326 379.761C117.569 379.343 112.881 376.556 111.289 375.06C119.345 377.89 131.375 384.686 140.104 386.009C187.598 393.214 230.946 371.488 256.239 334.743C262.821 325.179 267.743 314.104 270.53 302.564L288.439 315.86Z" fill="#034194"/>
<path d="M201.569 143.246C201.218 143.348 200.796 144.273 200.294 144.604C198.376 145.868 190.997 151.321 189.451 151.514C188.732 151.605 188.055 151.471 187.353 151.337C176.832 149.341 164.279 144.258 153.607 141.387C134.465 136.238 115.749 132.111 95.6463 133.801C71.7282 135.812 48.4744 147.254 35.3078 165.137L8.01758 166.353C8.91179 164.589 9.88958 162.833 10.9468 161.081C31.2295 127.473 72.2129 110.169 111.888 114.945C137.281 118.005 160.472 128.777 184.219 136.954C189.543 138.785 195.234 140.25 200.436 142.167C201.092 142.411 201.786 142.277 201.569 143.246Z" fill="#FD7602"/>
<path d="M250.545 1.6203C197.402 -7.43131 152.599 22.5347 127.536 64.2335C123.094 71.6276 117.909 81.2698 115.381 89.3961C114.674 91.6679 112.021 100.078 115.364 101.038C118.318 101.889 120.487 99.6683 122.171 97.7627C129.065 89.9513 135.312 77.1278 141.835 68.3479C167.876 33.3068 217.893 2.08489 263.21 26.7002C289.689 41.0828 295.126 70.2456 282.21 95.2114C280.43 95.483 282.001 93.3412 282.122 92.5656C285.682 69.5448 281.65 49.406 258.68 37.2716C226.321 20.1763 188.372 37.1141 166.075 60.883C158.106 69.3794 137.594 95.5657 137.606 106.436C137.606 110.204 140.373 112.106 143.887 109.964C149.866 106.322 159.648 91.5301 164.809 85.581C178.117 70.2456 194.502 55.4614 215.691 50.8431C248.468 43.6971 274.095 68.1943 256.227 97.6997C249.893 108.165 236.601 118.972 226.727 126.713C220.626 131.493 208.433 141.237 201.568 143.253C201.217 143.355 200.79 144.281 200.293 144.611C198.371 145.879 190.996 151.328 189.45 151.521C189.479 152.399 188.89 152.576 188.33 153.025C184.661 155.95 179.885 157.797 176.078 160.183C176.116 159.128 173.613 158.384 172.731 158.021C136.846 143.324 105.624 130.863 67.9078 150.19C44.5455 162.163 24.7725 189.054 37.6091 214.473C46.0832 231.257 63.9424 236.659 82.4827 234.202C98.3194 232.104 109.138 226.162 122.559 218.615C149.461 203.488 174.378 185.814 203.164 173.691C238.477 158.821 280.392 144.308 300.675 110.838C328.508 64.9028 307.298 11.2979 250.549 1.62818L250.545 1.6203ZM141.852 183.239C127.72 192.913 98.7791 216.41 82.0648 218.052C58.5896 220.355 50.2617 198.386 61.8322 181.467C72.9555 165.199 97.8055 158.738 117.319 160.62C131.877 162.022 144.701 167.423 158.115 172.38C152.703 175.995 147.217 179.566 141.852 183.239Z" fill="url(#paint1_linear_1358_423)"/>
<path d="M176.079 160.175C176.116 159.12 173.613 158.376 172.732 158.013C136.846 143.316 105.624 130.855 67.9083 150.182C44.5418 162.155 24.773 189.046 37.6054 214.465C44.4708 228.06 57.4912 234.186 72.0409 234.718C68.9321 234.068 66.1868 231.426 65.2717 228.757C64.6031 226.812 65.0586 224.253 66.1366 222.517C67.3735 220.524 69.1076 219.654 71.2721 218.796C69.7887 219.386 71.4559 218.701 71.7401 218.583C72.2206 218.379 72.7011 218.174 73.1817 217.965C73.3279 217.902 73.47 217.835 73.6121 217.772C56.7474 214.678 51.7791 196.169 61.8243 181.471C72.9519 165.203 97.7976 158.742 117.311 160.624C131.87 162.025 144.694 167.427 158.107 172.384L178.402 158.832C177.6 159.269 176.818 159.714 176.075 160.179L176.079 160.175Z" fill="#FD7602"/>
<path d="M75.8464 234.415C75.4661 234.565 75.0817 234.675 74.6973 234.75C76.1639 234.738 77.6473 234.671 79.1349 234.553C78.7923 234.218 78.4789 233.852 78.1989 233.466C77.4175 233.785 76.6361 234.104 75.8464 234.415Z" fill="#FD7602"/>
<path d="M288.439 315.86C284.938 326.793 279.815 337.223 273.284 346.456C239.972 393.545 170.537 408.841 118.326 379.761C117.569 379.343 112.881 376.556 111.289 375.06C119.345 377.89 131.375 384.686 140.104 386.009C187.598 393.214 230.946 371.488 256.239 334.743C262.821 325.179 267.743 314.104 270.53 302.564L288.439 315.86Z" fill="#034194"/>
<path d="M380.068 245.353V197.772H392.673L393.117 211.62L392.14 211.354C392.91 206.561 394.271 203.099 396.224 200.968C398.177 198.838 400.869 197.772 404.302 197.772H408.651V208.78H404.302C401.816 208.78 399.774 209.105 398.177 209.756C396.579 210.407 395.366 211.443 394.537 212.863C393.768 214.283 393.383 216.207 393.383 218.633V245.353H380.068ZM437.569 246.418C432.716 246.418 428.485 245.412 424.875 243.4C421.265 241.328 418.454 238.429 416.442 234.7C414.43 230.972 413.424 226.593 413.424 221.562C413.424 216.532 414.43 212.183 416.442 208.513C418.454 204.785 421.265 201.885 424.875 199.814C428.485 197.743 432.716 196.707 437.569 196.707C442.422 196.707 446.653 197.743 450.263 199.814C453.873 201.885 456.684 204.785 458.696 208.513C460.708 212.183 461.714 216.532 461.714 221.562C461.714 226.593 460.708 230.972 458.696 234.7C456.684 238.429 453.873 241.328 450.263 243.4C446.653 245.412 442.422 246.418 437.569 246.418ZM437.569 236.209C440.883 236.209 443.458 234.937 445.292 232.392C447.127 229.788 448.044 226.178 448.044 221.562C448.044 216.946 447.127 213.366 445.292 210.821C443.458 208.218 440.883 206.916 437.569 206.916C434.255 206.916 431.681 208.218 429.846 210.821C428.012 213.366 427.094 216.946 427.094 221.562C427.094 226.178 428.012 229.788 429.846 232.392C431.681 234.937 434.255 236.209 437.569 236.209ZM487.404 246.418C482.492 246.418 478.645 244.85 475.864 241.713C473.142 238.517 471.781 234.079 471.781 228.398V197.772H485.096V225.291C485.096 228.96 485.658 231.653 486.783 233.369C487.907 235.026 489.682 235.854 492.109 235.854C494.831 235.854 496.932 234.937 498.411 233.102C499.95 231.209 500.719 228.398 500.719 224.669V197.772H514.035V245.353H501.873L501.518 231.682L503.205 232.037C502.495 236.772 500.808 240.352 498.145 242.778C495.482 245.205 491.902 246.418 487.404 246.418ZM545.276 245.353C540.364 245.353 536.754 244.228 534.446 241.979C532.138 239.671 530.984 236.032 530.984 231.061V186.588H544.299V229.463C544.299 231.771 544.773 233.339 545.72 234.168C546.726 234.996 548.205 235.41 550.158 235.41H556.816V245.353H545.276ZM523.35 207.715V197.772H556.816V207.715H523.35ZM587.054 246.418C582.201 246.418 577.97 245.412 574.36 243.4C570.809 241.328 568.028 238.429 566.016 234.7C564.063 230.972 563.086 226.593 563.086 221.562C563.086 216.532 564.063 212.183 566.016 208.513C568.028 204.785 570.809 201.885 574.36 199.814C577.911 197.743 582.113 196.707 586.965 196.707C591.7 196.707 595.813 197.743 599.304 199.814C602.796 201.885 605.488 204.844 607.382 208.691C609.335 212.538 610.311 217.124 610.311 222.45V225.113H576.846C577.023 228.901 578.029 231.712 579.864 233.546C581.757 235.381 584.243 236.298 587.32 236.298C589.569 236.298 591.433 235.825 592.913 234.878C594.451 233.931 595.546 232.481 596.197 230.528L609.601 231.327C608.359 236.061 605.725 239.76 601.701 242.423C597.677 245.086 592.794 246.418 587.054 246.418ZM576.846 216.946H596.641C596.463 213.455 595.487 210.851 593.712 209.135C591.995 207.419 589.747 206.561 586.965 206.561C584.184 206.561 581.876 207.478 580.041 209.312C578.266 211.088 577.201 213.632 576.846 216.946Z" fill="#004290"/>
<path d="M644.085 246.773C636.274 246.773 630.237 244.997 625.976 241.447C621.775 237.837 619.526 232.984 619.23 226.889L632.989 226.356C633.285 229.492 634.38 231.8 636.274 233.28C638.226 234.7 640.83 235.41 644.085 235.41C646.216 235.41 648.109 235.115 649.766 234.523C651.423 233.872 652.725 232.895 653.672 231.593C654.678 230.291 655.181 228.664 655.181 226.711C655.181 223.693 654.146 221.444 652.074 219.965C650.003 218.426 647.192 217.657 643.641 217.657H638.049V207.626H643.641C646.364 207.626 648.612 207.064 650.388 205.939C652.222 204.756 653.14 202.773 653.14 199.992C653.14 197.624 652.4 195.76 650.92 194.399C649.441 192.979 647.103 192.269 643.908 192.269C640.712 192.269 638.315 192.92 636.717 194.222C635.12 195.524 634.143 197.21 633.788 199.281L620.206 198.571C620.798 193.245 623.136 188.984 627.219 185.789C631.362 182.534 636.925 180.906 643.908 180.906C648.879 180.906 653.08 181.616 656.513 183.037C659.945 184.457 662.549 186.499 664.325 189.162C666.1 191.825 666.988 194.961 666.988 198.571C666.988 202.3 665.745 205.377 663.259 207.803C660.833 210.23 657.312 211.887 652.696 212.774V211.265C657.963 212.035 662.017 213.84 664.857 216.68C667.698 219.521 669.118 223.19 669.118 227.688C669.118 231.653 668.082 235.085 666.011 237.985C663.94 240.825 661.04 243.015 657.312 244.554C653.584 246.033 649.175 246.773 644.085 246.773ZM704.305 246.773C698.92 246.773 694.393 245.619 690.724 243.311C687.114 241.003 684.391 237.689 682.557 233.369C680.722 228.989 679.805 223.723 679.805 217.568C679.805 212.301 680.338 207.448 681.403 203.01C682.468 198.512 684.066 194.636 686.196 191.381C688.386 188.067 691.167 185.493 694.541 183.658C697.914 181.824 701.879 180.906 706.436 180.906C712.59 180.906 717.443 182.386 720.994 185.345C724.604 188.304 727.001 192.328 728.184 197.417L715.668 198.305C714.958 196.352 713.922 194.813 712.561 193.689C711.2 192.565 709.158 192.002 706.436 192.002C702.293 192.002 699.038 193.807 696.671 197.417C694.304 201.027 692.972 206.59 692.677 214.106L690.812 213.751C691.463 212.035 692.499 210.437 693.919 208.957C695.34 207.478 697.145 206.294 699.334 205.407C701.583 204.46 704.187 203.986 707.146 203.986C711.407 203.986 715.135 204.844 718.331 206.561C721.586 208.277 724.071 210.673 725.787 213.751C727.563 216.828 728.45 220.438 728.45 224.581C728.45 229.315 727.444 233.339 725.432 236.653C723.42 239.908 720.609 242.423 716.999 244.199C713.389 245.915 709.158 246.773 704.305 246.773ZM704.217 236.032C707.471 236.032 710.075 235.026 712.028 233.014C714.04 230.942 715.046 228.191 715.046 224.758C715.046 222.509 714.602 220.556 713.715 218.899C712.886 217.242 711.673 215.94 710.075 214.994C708.537 214.047 706.732 213.573 704.66 213.573C702.471 213.573 700.518 214.047 698.802 214.994C697.085 215.94 695.754 217.242 694.807 218.899C693.86 220.556 693.387 222.509 693.387 224.758C693.387 226.948 693.831 228.901 694.718 230.617C695.606 232.333 696.849 233.665 698.447 234.611C700.104 235.558 702.027 236.032 704.217 236.032ZM766.367 246.773C760.804 246.773 756.01 245.471 751.986 242.867C747.962 240.204 744.855 236.416 742.665 231.505C740.535 226.593 739.47 220.734 739.47 213.928C739.47 207.123 740.564 201.264 742.754 196.352C744.944 191.381 748.021 187.564 751.986 184.901C756.01 182.238 760.804 180.906 766.367 180.906C771.87 180.906 776.605 182.238 780.57 184.901C784.594 187.564 787.701 191.381 789.89 196.352C792.08 201.264 793.175 207.123 793.175 213.928C793.175 220.675 792.08 226.504 789.89 231.416C787.76 236.328 784.683 240.115 780.658 242.778C776.634 245.441 771.87 246.773 766.367 246.773ZM766.367 235.41C770.509 235.41 773.675 233.605 775.865 229.996C778.114 226.386 779.238 221.03 779.238 213.928C779.238 209.135 778.735 205.14 777.729 201.945C776.782 198.749 775.332 196.352 773.379 194.754C771.486 193.097 769.148 192.269 766.367 192.269C763.526 192.269 761.129 193.097 759.176 194.754C757.283 196.352 755.833 198.749 754.827 201.945C753.88 205.14 753.406 209.135 753.406 213.928C753.406 221.03 754.501 226.386 756.691 229.996C758.94 233.605 762.165 235.41 766.367 235.41Z" fill="#FF6D05"/>
<defs>
<linearGradient id="paint0_linear_1358_423" x1="271.02" y1="239.533" x2="-5.44937" y2="312.693" gradientUnits="userSpaceOnUse">
<stop offset="0.48" stop-color="#034194"/>
<stop offset="0.58" stop-color="#FD7602"/>
</linearGradient>
<linearGradient id="paint1_linear_1358_423" x1="260.247" y1="101.105" x2="-33.7917" y2="150.533" gradientUnits="userSpaceOnUse">
<stop offset="0.54" stop-color="#034194"/>
<stop offset="0.59" stop-color="#FD7602"/>
</linearGradient>
</defs>
</svg>
