<svg width="327" height="428" viewBox="0 0 327 428" fill="none" xmlns="http://www.w3.org/2000/svg">
<path d="M204.071 214.442C204.071 214.233 229.134 211.288 247.82 224.706C283.856 250.585 280.914 301.529 258.233 334.475C232.94 371.221 189.044 393.458 141.551 386.253C132.822 384.93 125.121 380.859 117.065 378.024C109.129 375.233 97.3124 364.213 93.255 357.26C83.6861 340.865 85.3785 321.412 94.9933 305.454C101.274 295.028 115.167 281.76 126.809 276.768C129.721 275.52 137.159 272.933 135.776 278.528C135.325 280.355 130.072 284.611 128.547 286.284C110.801 305.749 99.3767 336.353 126.153 354.389C162.109 378.611 216.815 357.453 239.676 326.03C257.669 301.296 262.863 263.208 242.839 238.167C236.108 229.75 215.323 215.225 204.066 214.442H204.071Z" fill="#FD7602"/>
<path d="M277.584 189.149C218.223 152.573 167.688 203.307 118.698 229.143C109.714 233.88 95.4489 240.467 85.4078 242.069C56.6509 246.652 26.2017 230.962 24.3799 201.732C21.9981 163.502 57.9964 136.966 95.6495 133.8C115.748 132.111 134.468 136.237 153.61 141.387C164.282 144.257 176.831 149.34 187.356 151.336C188.058 151.47 188.735 151.604 189.454 151.514C191 151.321 198.375 145.868 200.297 144.604C200.795 144.277 201.221 143.348 201.572 143.245C201.785 142.277 201.091 142.411 200.439 142.167C195.237 140.249 189.546 138.785 184.222 136.95C160.476 128.772 137.281 118 111.892 114.941C72.2161 110.165 31.2285 127.469 10.9458 161.077C-21.0996 214.174 21.2334 273.035 85.8257 263.72C106.179 260.782 122.852 252.416 140.427 242.919C157.384 233.758 186.241 213.135 205.938 214.505C207.029 214.505 206.64 214.536 207.447 214.505C223.054 213.926 233.308 215.977 245.831 224.97C281.867 250.849 278.925 301.792 256.244 334.739C230.951 371.485 187.599 393.206 140.109 386.005C131.38 384.682 119.35 377.886 111.294 375.056C112.886 376.556 117.574 379.339 118.327 379.757C170.542 408.837 239.977 393.541 273.289 346.452C305.263 301.253 303.466 227.49 242.739 205.441C230.951 201.162 216.485 200.26 204.083 202.295C203.812 201.307 205.061 201.225 205.763 200.933C252.392 181.602 292.932 221.182 300.487 262.058C313.106 330.337 261.99 393.742 190.453 404.226C186.441 404.813 182.045 405.325 177.758 405.455C131.263 406.892 69.4749 383.682 72.8596 331.617C74.4976 306.391 96.4434 282.154 119.313 270.657C122.835 268.885 131.99 266.086 134.289 264.294C139.341 260.349 129.667 260.432 127.394 260.554C89.5028 262.609 51.6575 299.328 49.0668 334.79C44.345 399.427 120.892 430.507 179.016 427.507C242.965 424.204 303.654 379.198 320.548 320.892C334.425 273.007 323.774 217.603 277.592 189.145L277.584 189.149Z" fill="url(#paint0_linear_1358_434)"/>
<path d="M288.439 315.86C284.938 326.793 279.815 337.223 273.284 346.456C239.972 393.545 170.537 408.841 118.326 379.761C117.569 379.343 112.881 376.556 111.289 375.06C119.345 377.89 131.375 384.686 140.104 386.009C187.598 393.214 230.946 371.488 256.239 334.743C262.821 325.179 267.743 314.104 270.53 302.564L288.439 315.86Z" fill="#034194"/>
<path d="M201.569 143.246C201.218 143.348 200.796 144.273 200.294 144.604C198.376 145.868 190.997 151.321 189.451 151.514C188.732 151.605 188.055 151.471 187.353 151.337C176.832 149.341 164.279 144.258 153.607 141.387C134.465 136.238 115.749 132.111 95.6463 133.801C71.7282 135.812 48.4744 147.254 35.3078 165.137L8.01758 166.353C8.91179 164.589 9.88958 162.833 10.9468 161.081C31.2295 127.473 72.2129 110.169 111.888 114.945C137.281 118.005 160.472 128.777 184.219 136.954C189.543 138.785 195.234 140.25 200.436 142.167C201.092 142.411 201.786 142.277 201.569 143.246Z" fill="#FD7602"/>
<path d="M250.545 1.6203C197.402 -7.43131 152.599 22.5347 127.536 64.2335C123.094 71.6276 117.909 81.2698 115.381 89.3961C114.674 91.6679 112.021 100.078 115.364 101.038C118.318 101.889 120.487 99.6683 122.171 97.7627C129.065 89.9513 135.312 77.1278 141.835 68.3479C167.876 33.3068 217.893 2.08489 263.21 26.7002C289.689 41.0828 295.126 70.2456 282.21 95.2114C280.43 95.483 282.001 93.3412 282.122 92.5656C285.682 69.5448 281.65 49.406 258.68 37.2716C226.321 20.1763 188.372 37.1141 166.075 60.883C158.106 69.3794 137.594 95.5657 137.606 106.436C137.606 110.204 140.373 112.106 143.887 109.964C149.866 106.322 159.648 91.5301 164.809 85.581C178.117 70.2456 194.502 55.4614 215.691 50.8431C248.468 43.6971 274.095 68.1943 256.227 97.6997C249.893 108.165 236.601 118.972 226.727 126.713C220.626 131.493 208.433 141.237 201.568 143.253C201.217 143.355 200.79 144.281 200.293 144.611C198.371 145.879 190.996 151.328 189.45 151.521C189.479 152.399 188.89 152.576 188.33 153.025C184.661 155.95 179.885 157.797 176.078 160.183C176.116 159.128 173.613 158.384 172.731 158.021C136.846 143.324 105.624 130.863 67.9078 150.19C44.5455 162.163 24.7725 189.054 37.6091 214.473C46.0832 231.257 63.9424 236.659 82.4827 234.202C98.3194 232.104 109.138 226.162 122.559 218.615C149.461 203.488 174.378 185.814 203.164 173.691C238.477 158.821 280.392 144.308 300.675 110.838C328.508 64.9028 307.298 11.2979 250.549 1.62818L250.545 1.6203ZM141.852 183.239C127.72 192.913 98.7791 216.41 82.0648 218.052C58.5896 220.355 50.2617 198.386 61.8322 181.467C72.9555 165.199 97.8055 158.738 117.319 160.62C131.877 162.022 144.701 167.423 158.115 172.38C152.703 175.995 147.217 179.566 141.852 183.239Z" fill="url(#paint1_linear_1358_434)"/>
<path d="M176.079 160.175C176.116 159.12 173.613 158.376 172.732 158.013C136.846 143.316 105.624 130.855 67.9083 150.182C44.5418 162.155 24.773 189.046 37.6054 214.465C44.4708 228.06 57.4912 234.186 72.0409 234.718C68.9321 234.068 66.1868 231.426 65.2717 228.757C64.6031 226.812 65.0586 224.253 66.1366 222.517C67.3735 220.524 69.1076 219.654 71.2721 218.796C69.7887 219.386 71.4559 218.701 71.7401 218.583C72.2206 218.379 72.7011 218.174 73.1817 217.965C73.3279 217.902 73.47 217.835 73.6121 217.772C56.7474 214.678 51.7791 196.169 61.8243 181.471C72.9519 165.203 97.7976 158.742 117.311 160.624C131.87 162.025 144.694 167.427 158.107 172.384L178.402 158.832C177.6 159.269 176.818 159.714 176.075 160.179L176.079 160.175Z" fill="#FD7602"/>
<path d="M75.8464 234.415C75.4661 234.565 75.0817 234.675 74.6973 234.75C76.1639 234.738 77.6473 234.671 79.1349 234.553C78.7923 234.218 78.4789 233.852 78.1989 233.466C77.4175 233.785 76.6361 234.104 75.8464 234.415Z" fill="#FD7602"/>
<path d="M288.439 315.86C284.938 326.793 279.815 337.223 273.284 346.456C239.972 393.545 170.537 408.841 118.326 379.761C117.569 379.343 112.881 376.556 111.289 375.06C119.345 377.89 131.375 384.686 140.104 386.009C187.598 393.214 230.946 371.488 256.239 334.743C262.821 325.179 267.743 314.104 270.53 302.564L288.439 315.86Z" fill="#034194"/>
<defs>
<linearGradient id="paint0_linear_1358_434" x1="271.02" y1="239.533" x2="-5.44937" y2="312.693" gradientUnits="userSpaceOnUse">
<stop offset="0.48" stop-color="#034194"/>
<stop offset="0.58" stop-color="#FD7602"/>
</linearGradient>
<linearGradient id="paint1_linear_1358_434" x1="260.247" y1="101.105" x2="-33.7917" y2="150.533" gradientUnits="userSpaceOnUse">
<stop offset="0.54" stop-color="#034194"/>
<stop offset="0.59" stop-color="#FD7602"/>
</linearGradient>
</defs>
</svg>
